<svg xmlns="http://www.w3.org/2000/svg" viewBox="0 0 76.4 57.907"><g fill="none" stroke="#fff" stroke-linecap="round" stroke-linejoin="round" stroke-width="1.4"><path d="M59.396 40.917a16.3 16.3 0 10-3.991-32.1 20.07 20.07 0 00-34.955 5 14.129 14.129 0 10-5.62 27.093h14.453m39.744-24.322a12.51 12.51 0 00-9.631-4.511m12.535 12.536a12.486 12.486 0 00-1.161-5.276m-51.048-.161a19.4 19.4 0 01.978-6.1m29.692-2.004a16.373 16.373 0 019-2.763"/><path d="M29.451 45.086c1.1-7.021-3.152-10.131-3.333-10.26l-.709-.5.785-.367c3.9-1.828 2.307-6.964 2.238-7.182l-.372-1.158 1.081.557a12.645 12.645 0 007.764.86l.333-.079 2.776 3.983c1.206-3.672 1.963-7.026 1.793-8.029l-.157-.927.858.384c.063.028 6.3 2.76 9.488-1l1.409-1.663-.537 2.112c-1.212 4.765 4.631 8.274 4.69 8.309l.808.476-.844.409c-.915.444-3.208 3.007-5.5 6.119l4.855-.049.129.318a12.646 12.646 0 005.2 5.826l1.084.559-1.163.367c-.053.017-5.33 1.737-4.552 5.989l.156.853-.818-.289c-.051-.017-5.185-1.75-10.291 3.236l-.375.366-.35-.39a16.238 16.238 0 00-4.14-3.122 10.326 10.326 0 00-3.595-1.139l-.192-.021-.129-.144a10.332 10.332 0 00-3.013-2.267 16.216 16.216 0 00-4.945-1.561l-.521-.06zm16.432-10.782l-11.682 22.66m6.413-12.438l-5.429-8.252m5.429 8.252l9.871-.364"/></g></svg>