<svg xmlns="http://www.w3.org/2000/svg" viewBox="0 0 76.4 59.934"><path d="M59.396 8.355a16.2 16.2 0 00-3.991.516 20.015 20.015 0 00-34.955 5.034 14 14 0 00-5.62-1.175 14.217 14.217 0 000 28.432h44.565a16.403 16.403 0 000-32.807zm9.719 8.269a12.343 12.343 0 00-9.5-4.45M71.981 24.71a12.316 12.316 0 00-1.146-5.205m-51.11-.296a19.141 19.141 0 01.965-6.02m29.793-2.097a16.155 16.155 0 018.884-2.726M52.97 45.417c-.448.627-4.368 6.2-4.368 8.729a5.088 5.088 0 0010.175 0c0-2.531-3.921-8.1-4.368-8.729a.884.884 0 00-1.439 0zm-15.489 0c-.447.627-4.368 6.2-4.368 8.729a5.088 5.088 0 0010.175 0c0-2.531-3.921-8.1-4.368-8.729a.884.884 0 00-1.439 0zm-15.488 0c-.448.627-4.368 6.2-4.368 8.729a5.088 5.088 0 0010.175 0c0-2.531-3.921-8.1-4.368-8.729a.884.884 0 00-1.439 0z" fill="none" stroke="#fff" stroke-linecap="round" stroke-linejoin="round" stroke-width="1.4"/></svg>