<svg xmlns="http://www.w3.org/2000/svg" viewBox="0 0 64.9 64.9"><g transform="translate(-364.04 -381.924)" fill="none" stroke="#fff" stroke-linecap="round" stroke-linejoin="round" stroke-width="1.4"><circle cx="20.604" cy="20.604" r="20.604" transform="rotate(-45 684.446 -236.484)"/><path d="M411.2 423.342a17.217 17.217 0 01-14.71 8.258m17.225-17.226a17.229 17.229 0 01-.707 4.9m-16.518-29.219v-7.431m0 63.5v-7.431m24.319-24.319h7.431m-63.5 0h7.431m41.515-17.197l5.254-5.254m-44.901 44.901l5.254-5.254m34.393 0l5.254 5.254m-44.901-44.901l5.254 5.254m8.15-5.378l-1.005-2.508m20.103 50.164l-1.005-2.508m13.527-31.62l2.508-1.005m-50.164 20.103l2.508-1.005m32.14-31.406l1.063-2.484m-21.257 49.686l1.063-2.484m31.924-12.793l2.484 1.063m-49.686-21.257l2.484 1.063"/></g></svg>