<svg xmlns="http://www.w3.org/2000/svg" viewBox="0 0 65.843 60.315"><g fill="none" stroke="#fff" stroke-linecap="round" stroke-linejoin="round" stroke-width="1.4"><path d="M24.576 52.288a20.913 20.913 0 01-12.221-19.024 20.91 20.91 0 0120.91-20.91 20.91 20.91 0 0120.91 20.91 20.911 20.911 0 01-19.3 20.849M32.921 8.241V.7m24.681 32.221h7.541m-64.443 0h7.541m42.132-17.452l5.332-5.332M10.137 55.705l5.332-5.332m34.904 0l5.332 5.332M10.137 10.137l5.332 5.332m8.272-5.458l-1.02-2.545m20.401 50.909l-1.02-2.545m13.729-32.09l2.545-1.02M7.467 43.121l2.545-1.02M42.629 10.23l1.079-2.521m11.904 34.92l2.521 1.079M7.709 22.135l2.521 1.079"/><g transform="translate(20.237 21.054)"><path d="M8.544 21.656a.74.74 0 01.368.344c.956 1.873 2.244 2.941 3.537 2.928 1.255-.009 2.478-1.041 3.356-2.83a.739.739 0 01.917-.369c1.873.683 3.471.581 4.384-.279.939-.886 1.13-2.549.526-4.562a.741.741 0 01.372-.872c1.872-.957 2.94-2.246 2.93-3.536-.01-1.254-1.043-2.478-2.832-3.358a.739.739 0 01-.369-.917c.684-1.872.582-3.468-.278-4.382-.887-.941-2.548-1.131-4.562-.527a.739.739 0 01-.87-.371c-.958-1.871-2.249-2.935-3.537-2.929-1.255.011-2.478 1.042-3.356 2.831a.739.739 0 01-.917.369c-1.873-.683-3.471-.581-4.384.279-.939.885-1.13 2.548-.525 4.562a.741.741 0 01-.372.871c-1.872.957-2.94 2.246-2.93 3.536.01 1.254 1.043 2.478 2.832 3.358a.739.739 0 01.369.917c-.684 1.872-.582 3.468.279 4.381.881.938 2.546 1.132 4.561.527a.74.74 0 01.501.029z"/><circle cx="5.373" cy="5.373" r="5.373" transform="rotate(-66.748 14.304 3.535)"/><path d="M16.681 29.304C8.857 26.896 4.757 32.779 3.54 34.962c3.428 1.371 6.325 1.468 8.622.286 2.837-1.46 4.084-4.548 4.519-5.944zm-8.489-6.819L1.426 38.342"/></g></g></svg>