<svg xmlns="http://www.w3.org/2000/svg" width="39.88" height="40"><path d="M38.27 16.38h-4.92a9.82 9.82 0 00-2.28-7.62 10.52 10.52 0 00-1.42-1.34l2.2-5.18A1.6 1.6 0 1028.89.98l-2.03 4.78a17.5 17.5 0 00-6.96-1.35 16.95 16.95 0 00-6.85 1.4L11 .97a1.6 1.6 0 10-2.96 1.26l2.22 5.23a10.54 10.54 0 00-1.37 1.3 9.87 9.87 0 00-2.36 7.6H1.6a1.6 1.6 0 100 3.22h5.38a57.62 57.62 0 002.53 10.05l-4.86 2.5A1.6 1.6 0 106.13 35l4.62-2.39C12.81 36.85 15.74 40 19.9 40c4.43 0 7.37-3.2 9.36-7.32l4.5 2.32a1.6 1.6 0 101.47-2.86l-4.74-2.44a57.96 57.96 0 002.41-10.1h5.38a1.6 1.6 0 100-3.22zM19.9 36.78c-2.75 0-5.13-2.51-7.07-7.48a58.1 58.1 0 01-3.05-12.83 6.75 6.75 0 011.54-5.58c1.79-2.04 5-3.26 8.59-3.26 3.7 0 6.98 1.21 8.74 3.24a6.74 6.74 0 011.46 5.6c-.7 5.03-2.85 20.32-10.2 20.32z" fill="#fff"/></svg>