<svg xmlns="http://www.w3.org/2000/svg" width="30.74" height="30"><path d="M15.76.1a1.14 1.14 0 00-.95 0c-.32.15-8.03 3.71-8.03 12.67 0 7.24 5.42 10.92 7.36 12.01v4.08a1.14 1.14 0 002.28 0v-4.09c1.94-1.1 7.37-4.81 7.37-12 0-8.89-7.7-12.52-8.03-12.67zm-.48 22.7c-1.54-.85-6.22-3.94-6.22-10.03a11.85 11.85 0 016.22-10.34 12.05 12.05 0 016.23 10.34c0 6.04-4.7 9.16-6.23 10.03zm-11.2-1.04a1.14 1.14 0 00.86-1.89 10.65 10.65 0 01-2.66-7.1 11.18 11.18 0 012.76-7.5A1.14 1.14 0 103.31 3.8a13.4 13.4 0 00-3.3 8.98 12.87 12.87 0 003.2 8.6 1.14 1.14 0 00.87.4zM25.92 3.67a1.14 1.14 0 00-.12 1.6 10.65 10.65 0 012.66 7.12 11.18 11.18 0 01-2.76 7.48 1.14 1.14 0 101.73 1.5 13.4 13.4 0 003.31-8.98 12.87 12.87 0 00-3.2-8.6 1.14 1.14 0 00-1.62-.12z" fill="#fff"/></svg>